<?xml version="1.0" encoding="UTF-8" standalone="no"?>
<svg
   xmlns:adsadfs="adsadfs"
   xmlns="http://www.w3.org/2000/svg"
   xmlns:xlink="http://www.w3.org/1999/xlink"
   id="svg3195"
   height="237.73616"
   width="825.69641"
   version="1.1">
 <g
     transform="translate(203.64154,120.51806)"
     id="apple"
     adsadfs:knockout="Off">
    <path
       style="fill:#9e6111;stroke-width:1.06666672"
       id="path3209"
       d="m 73.4656,10.592743 c 0,0 -3.76,6.424533 -3.76,6.424533 0,0 -13.6864,-3.701333 -21.058133,26.526934 -0.0011,0 2.254933,-34.440534 24.818133,-32.951467 0,0 0,0 0,0"
       adsadfs:knockout="Off" />
    <path
       style="fill:#4dac26;stroke-width:1.06666672"
       id="path3211"
       d="m 47.592533,35.523943 c 0,0 -28.081066,-10.487467 -24.133333,-33.633067 10.442667,0.6282667 28.344533,0.010667 24.133333,33.633067 0,0 0,0 0,0"
       adsadfs:knockout="Off" />
    <path
       style="fill:#dc151f;stroke-width:1.06666672"
       id="path3213"
       d="m 50.050133,39.533543 c 0,0 7.7216,2.775467 14.3904,-2.16 6.6688,-4.933333 23.166934,-1.232 25.623467,8.946133 1.688533,6.9984 4.8704,34.117334 -7.105067,51.184 C 77.5136,105.26154 69.0048,114.48927 55.664,111.71274 c -2.4576,2.15893 -14.740267,6.17067 -23.8656,4.31893 -9.1232,-1.85173 -34.7850667,-25.36426 -27.7312,-70.02026 3.5114667,-22.208 44.229333,-8.020267 45.982933,-6.477867 0,0 0,0 0,0"
       adsadfs:knockout="Off" />
    <path
       style="fill:#a81018;stroke-width:1.06666672"
       id="path3237"
       d="m 53.911467,102.15221 c 0,0 -1.7568,13.57226 -16.848,13.57226 4.56,-4.01173 15.444266,-5.86026 16.848,-13.57226 0,0 0,0 0,0"
       adsadfs:knockout="Off" />
    <g
       id="g3217">
      <path
         style="stroke-width:1.06666672"
         id="path3219"
         d="m 64.112,38.038076 c 5.765333,-2.744533 11.640533,-4.032 17.208533,0.552534 12.730667,10.513066 9.821867,30.4544 8.174934,42.468266 -1.521067,11.0624 -10.3264,20.166404 -19.489067,28.040534 -5.5872,4.8288 -11.909333,1.70133 -15.5616,0.82666 -0.324267,-0.0768 -2.4928,1.91254 -0.443733,2.40747 6.340266,1.52853 8.782933,1.7888 12.792533,-0.0256 7.335467,-3.33867 12.9088,-7.61387 16.8832,-13.77493 5.573333,-8.625067 9.432533,-18.672 10.3744,-28.384 0.709333,-6.8096 0.884267,-13.6736 -1.4144,-20.304 -2.0928,-6.0064 -3.770667,-11.186134 -11.549867,-14.085334 -10.341333,-3.854933 -16.032,0 -20.626133,2.3552 -0.808533,0.411734 -5.365333,1.579734 -5.3952,1.684267 -0.02773,0.129067 0.0288,0.232533 0.177067,0.258133 0,0 3.211733,0.6752 8.869333,-2.0192 0,0 0,0 0,0"
         adsadfs:knockout="Off" />
      <path
         style="fill:#a81018;stroke-width:1.06666672"
         id="path3221"
         d="m 40.923733,43.852476 c 0,0 -1.7536,3.083734 2.1088,4.9344 3.860267,1.851734 11.232,5.5776 15.9712,-4.151466 -4.389333,1.376 -15.9712,4.152533 -18.08,-0.782934 0,0 0,0 0,0"
         adsadfs:knockout="Off" />
      <path
         style="stroke-width:1.06666672"
         id="path3223"
         d="m 57.245867,44.943676 c -3.594667,0.336 -7.6032,0.1024 -10.488534,2.3552 0,0 -3.509333,-0.336 -5.099733,-3.236266 -0.06827,-0.125867 -0.5664,-0.199467 -0.472533,0.232533 0.884266,1.5552 3.4784,3.237333 5.5424,3.7568 0,0 4.3584,-2.125867 10.576,-2.693333 0.122666,-0.01173 0.501333,-0.3264 -0.0576,-0.414934 0,0 0,0 0,0"
         adsadfs:knockout="Off" />
      <path
         style="fill:#df574f;stroke-width:1.06666672"
         id="path3225"
         d="m 67.482667,40.127676 c 0,0 21.8784,-7.070933 16.9664,22.541867 -1.403734,-20.360533 -9.125334,-20.052267 -16.9664,-22.541867 0,0 0,0 0,0"
         adsadfs:knockout="Off" />
      <path
         style="stroke-width:1.06666672"
         id="path3227"
         d="m 22.7744,43.504743 c -9.013333,9.0624 -8.946133,23.147733 -3.8208,33.637333 0.6784,0.7104 0.887467,-0.05013 0.7968,-0.260266 -3.889067,-9.994667 -5.834667,-22.890667 3.272533,-31.178667 0,0 2.0032,-1.965867 1.9744,-2.069333 -0.06187,-0.1056 -2.222933,-0.129067 -2.222933,-0.129067 0,0 0,0 0,0"
         adsadfs:knockout="Off" />
      <path
         style="stroke-width:1.06666672"
         id="path3229"
         d="m 75.309867,17.130343 c -0.970667,-1.605333 -1.9744,-4.4672 -0.941867,-6.4992 0.148267,-0.1824 -3.2256,-3.6512003 -10.4032,0.7264 -8.014933,5.229867 -13.0848,12.119467 -15.441067,20.5344 -0.401066,1.378133 -0.88,6.071467 -1.111466,5.934933 C 42.165333,34.823143 36.027733,33.031143 30.0448,32.151143 24.416,31.347943 18.702933,31.244476 13.514667,33.44501 4.9088,37.097276 1.0474667,45.40981 0.28266667,53.282876 -1.0122667,66.179943 2.2890667,78.919143 7.0624,91.011943 c 12.983467,31.140267 33.944533,27.245867 39.221333,24.189867 3.448534,-2.0192 4.653867,-5.48907 5.6,-8.82987 0.177067,-0.31253 -4.3552,13.34613 -20.7776,8.80427 C 21.442133,110.82634 19.3568,107.44607 11.226667,94.044476 4.6272,71.667943 4.9376,81.059943 3.9957333,58.131943 c -0.2954666,-7.217067 3.8496,-21.1648 11.6309337,-24.583467 8.4032,-3.6512 25.412266,3.154134 31.659733,5.8016 0.136533,0.0608 -0.112,4.128 0.353067,5.413334 0.466133,1.284266 0.970666,0.413866 1.000533,0.181333 1.742933,-4.427733 2.594133,-9.1168 4.744533,-13.389867 2.871467,-5.688533 6.736,-12.7872 14.7776,-13.450666 0.0032,0.0032 3.672534,0.747733 5.050667,-0.7296 -0.562133,-0.309334 -1.5904,-0.528 -2.049067,-0.4352 -0.48,0.676266 -1.52,0.08533 -2.2912,0.210133 1.1584,-2.375467 2.551467,-4.641067 3.965867,-6.8928 0,0 0.628267,0.337066 0.628267,0.337066 -0.938667,1.358934 -0.602667,5.244801 0.9024,6.953601 0.117333,0.231466 1.218133,0.417066 0.9408,-0.417067 0,0 0,0 0,0 m -27.3056,25.330133 c -0.01067,-1.019733 0.06187,-2.068266 0.177066,-3.128533 0.407467,-0.1536 0.772267,-0.469333 0.958934,-0.8608 0,0 0.02453,-0.0192 0.02453,-0.0192 -0.464,1.316267 -0.882133,2.6464 -1.160533,4.008533 0,0 3e-6,0 3e-6,0 M 68.1792,17.184743 c -3.4176,-0.0256 -6.484267,1.268267 -8.96,3.416533 -3.416533,3.0048 -4.626133,6.837334 -6.657067,10.488534 -1.284266,2.314666 -2.413866,4.673066 -3.298133,7.096533 -0.04693,-0.08747 -0.162133,-0.1504 -0.270933,-0.104533 0,0 -0.624,-0.157867 -0.624,-0.157867 0.8768,-5.687467 3.355733,-11.6128 6.8416,-15.975467 4.1504,-5.1968 8.912,-11.0208 16.187733,-11.8016 -2.1152,2.3744 -2.183467,3.3888 -3.2192,7.037867 0,0 0,0 0,0"
         adsadfs:knockout="Off" />
      <path
         style="stroke-width:1.06666672"
         id="path3231"
         d="M 46.813867,12.832743 C 42.72,4.338876 33.1552,0.2087427 23.4592,1.890876 c 0,0 -2.136533,2.9653334 -1.457067,6.3317334 2.0672,10.2645336 8.749867,19.4997336 18.8864,24.6794666 0.180267,0.07787 0.778667,-0.122666 0.414934,-0.544 C 31.549867,27.15381 26.039467,18.10741 23.0624,8.2226094 22.2688,5.580476 23.658667,2.5319427 23.636267,2.476476 32.725333,1.5890094 41.115733,5.5367427 45.3696,13.22101 c 2.533333,4.635733 2.385067,9.7632 2.269867,14.760533 0.1184,0.545067 0.6176,0.181333 0.6176,0.0256 0.353066,-5.1008 0.8832,-10.356267 -1.4432,-15.1744 0,0 0,0 0,0"
         adsadfs:knockout="Off" />
      <path
         style="fill:#9cd122;stroke-width:1.06666672"
         id="path3233"
         d="m 44.432,31.82261 c 0,0 2.107733,-22.8266673 -12.6336,-21.9008006 9.825067,2.7765336 12.283733,19.1242666 12.6336,21.9008006 0,0 0,0 0,0"
         adsadfs:knockout="Off" />
      <path
         style="stroke-width:1.06666672"
         id="path3235"
         d="m 45.044267,33.005543 c -1.237334,-4.685867 -1.413334,-9.399467 -4.418134,-13.777067 -2.3296,-3.365333 -5.335466,-5.9296 -7.720533,-9.089067 0,0 0,0 0,0 -0.180267,-0.2847996 -1.696,-0.6218663 -1.207467,0.621867 5.0368,7.095467 11.960534,13.594667 12.906667,22.3232 0.24,0.532267 0.469333,0.02347 0.439467,-0.07893 0,0 0,-3e-6 0,-3e-6"
         adsadfs:knockout="Off" />
    </g>
  </g>
  <use
     x="0"
     y="0"
     xlink:href="#apple"
     transform="translate(-153.74154,-121.97977)"
     id="use3499"
     width="184.61301"
     height="336.466" />
  <use
     x="0"
     y="0"
     xlink:href="#apple"
     transform="translate(-203.64116,-2.0269329)"
     id="use3501"
     width="184.61301"
     height="336.466" />
  <use
     x="0"
     y="0"
     xlink:href="#apple"
     transform="translate(-51.002581,-121.97977)"
     id="use3505"
     width="184.61301"
     height="336.466" />
  <use
     x="0"
     y="0"
     xlink:href="#apple"
     transform="translate(-102.42295,-2.0269329)"
     id="use3507"
     width="184.61301"
     height="336.466" />
  <text
     id="text1577"
     y="159.95836"
     x="315.91898"
     style="font-style:normal;font-weight:normal;font-size:160px;line-height:1.25;font-family:sans-serif;letter-spacing:0px;word-spacing:0px;fill:#000000;fill-opacity:1;stroke:none"
     xml:space="preserve"><tspan
       y="159.95836"
       x="315.91898"
       id="tspan1575">-</tspan></text>
  <use
     x="0"
     y="0"
     xlink:href="#apple"
     transform="translate(182.51174,-122.0393)"
     id="use3499-7"
     width="184.61301"
     height="336.466" />
  <use
     x="0"
     y="0"
     xlink:href="#apple"
     transform="translate(182.51174,-2.0864529)"
     id="use3501-5"
     width="184.61301"
     height="336.466" />
  <text
     id="text1627"
     y="164.87306"
     x="497.36823"
     style="font-style:normal;font-weight:normal;font-size:160px;line-height:1.25;font-family:sans-serif;letter-spacing:0px;word-spacing:0px;fill:#000000;fill-opacity:1;stroke:none"
     xml:space="preserve"><tspan
       y="164.87306"
       x="497.36823"
       id="tspan1625">=</tspan></text>
  <use
     x="0"
     y="0"
     xlink:href="#apple"
     transform="translate(476.21405,-120.73484)"
     id="use3499-3"
     width="184.61301"
     height="336.466" />
  <use
     x="0"
     y="0"
     xlink:href="#apple"
     transform="translate(426.31442,-0.78200285)"
     id="use3501-7"
     width="184.61301"
     height="336.466" />
  <use
     x="0"
     y="0"
     xlink:href="#apple"
     transform="translate(527.53264,-0.78200285)"
     id="use3507-5"
     width="184.61301"
     height="336.466" />
</svg>
